<svg width="128" height="128" viewBox="0 0 128 128" fill="none" xmlns="http://www.w3.org/2000/svg">
<path d="M108 0H20C8.9543 0 0 8.9543 0 20V108C0 119.046 8.9543 128 20 128H108C119.046 128 128 119.046 128 108V20C128 8.9543 119.046 0 108 0Z" fill="#C4C4C4"/>
<path d="M32.1055 66.9609V87H25.3555V35.8125H44.2344C49.8359 35.8125 54.2188 37.2422 57.3828 40.1016C60.5703 42.9609 62.1641 46.7461 62.1641 51.457C62.1641 56.4258 60.6055 60.2578 57.4883 62.9531C54.3945 65.625 49.9531 66.9609 44.1641 66.9609H32.1055ZM32.1055 61.4414H44.2344C47.8438 61.4414 50.6094 60.5977 52.5312 58.9102C54.4531 57.1992 55.4141 54.7383 55.4141 51.5273C55.4141 48.4805 54.4531 46.043 52.5312 44.2148C50.6094 42.3867 47.9727 41.4375 44.6211 41.3672H32.1055V61.4414ZM85.8594 64.1836C80.0703 62.5195 75.8516 60.4805 73.2031 58.0664C70.5781 55.6289 69.2656 52.6289 69.2656 49.0664C69.2656 45.0352 70.8711 41.707 74.082 39.082C77.3164 36.4336 81.5117 35.1094 86.668 35.1094C90.1836 35.1094 93.3125 35.7891 96.0547 37.1484C98.8203 38.5078 100.953 40.3828 102.453 42.7734C103.977 45.1641 104.738 47.7773 104.738 50.6133H97.9531C97.9531 47.5195 96.9688 45.0938 95 43.3359C93.0312 41.5547 90.2539 40.6641 86.668 40.6641C83.3398 40.6641 80.7383 41.4023 78.8633 42.8789C77.0117 44.332 76.0859 46.3594 76.0859 48.9609C76.0859 51.0469 76.9648 52.8164 78.7227 54.2695C80.5039 55.6992 83.5156 57.0117 87.7578 58.207C92.0234 59.4023 95.3516 60.7266 97.7422 62.1797C100.156 63.6094 101.938 65.2852 103.086 67.207C104.258 69.1289 104.844 71.3906 104.844 73.9922C104.844 78.1406 103.227 81.4688 99.9922 83.9766C96.7578 86.4609 92.4336 87.7031 87.0195 87.7031C83.5039 87.7031 80.2227 87.0352 77.1758 85.6992C74.1289 84.3398 71.7734 82.4883 70.1094 80.1445C68.4688 77.8008 67.6484 75.1406 67.6484 72.1641H74.4336C74.4336 75.2578 75.5703 77.707 77.8438 79.5117C80.1406 81.293 83.1992 82.1836 87.0195 82.1836C90.582 82.1836 93.3125 81.457 95.2109 80.0039C97.1094 78.5508 98.0586 76.5703 98.0586 74.0625C98.0586 71.5547 97.1797 69.6211 95.4219 68.2617C93.6641 66.8789 90.4766 65.5195 85.8594 64.1836Z" fill="black"/>
</svg>
